# xmcd
#
# Track frame offsets: 
#        183
#        19468
#        30623
#        47435
#        70063
#        82728
#        95553
#        110495
#        127675
#        143480
#        159525
#        179233
#        188878
#        209365
#
# Disc length: 3144 seconds
#
# Revision: 3
# Processed by: cddbd v1.5.2PL0 Copyright (c) Steve Scherf et al.
# Submitted via: ExactAudioCopyFreeDBPlugin 1.0
#
DISCID=b80c460e
DTITLE=Screamin' Jay Hawkins - Blues Shouter
DYEAR=1992
DGENRE=Blues
TTITLE0=Portrait of a Man
TTITLE1=Itty Bitty Pretty One
TTITLE2=Don't Decieve Me
TTITLE3=What's Gonna happen on the 8th Day?
TTITLE4=Ashes
TTITLE5=We Love
TTITLE6=It's Only Make Believe
TTITLE7=Please Don't Leave Me
TTITLE8=I Put a Spell on You
TTITLE9=I Don't Know
TTITLE10=Guess Who
TTITLE11=What Good is It p.1
TTITLE12=What Good Is It p.2
TTITLE13=Same Damn Thing
EXTD=CD also issued as I put a Spell on You, rerelased by Charlie Reco
EXTD=rds\nBLUNC 062 YEAR: 1992
EXTT0=
EXTT1=
EXTT2=
EXTT3=
EXTT4=
EXTT5=
EXTT6=
EXTT7=
EXTT8=
EXTT9=
EXTT10=
EXTT11=
EXTT12=
EXTT13=
PLAYORDER=
